<svg width="19" height="18" viewBox="0 0 19 18" fill="none" xmlns="http://www.w3.org/2000/svg">
<path d="M0.949997 8.68841C0.949997 7.46422 1.51058 6.30744 2.47142 5.54888L7.02142 1.95677C8.47466 0.80948 10.5253 0.809479 11.9786 1.95677L16.5286 5.54888C17.4894 6.30744 18.05 7.46422 18.05 8.68841V14C18.05 16.2091 16.2591 18 14.05 18H13.2C12.6477 18 12.2 17.5523 12.2 17V14.6C12.2 13.4954 11.3046 12.6 10.2 12.6H8.8C7.69543 12.6 6.8 13.4954 6.8 14.6V17C6.8 17.5523 6.35228 18 5.8 18H4.95C2.74086 18 0.949997 16.2091 0.949997 14L0.949997 8.68841Z" fill="white"/>
</svg>
