<svg width="12" height="14" viewBox="0 0 12 14" fill="none" xmlns="http://www.w3.org/2000/svg">
<path fill-rule="evenodd" clip-rule="evenodd" d="M0 5.9187C0 2.64485 2.68044 0 5.97561 0C9.27078 0 11.9512 2.64485 11.9512 5.9187C11.9512 7.95486 10.7638 9.9645 9.50536 11.4273C8.86852 12.1676 8.19259 12.7926 7.59637 13.237C7.29874 13.4589 7.01268 13.642 6.75446 13.7721C6.5124 13.894 6.23597 14 5.97561 14C5.71525 14 5.43882 13.894 5.19676 13.7721C4.93854 13.642 4.65248 13.4589 4.35485 13.237C3.75863 12.7926 3.0827 12.1676 2.44586 11.4273C1.18742 9.9645 0 7.95486 0 5.9187ZM5.97561 7.68294C4.8441 7.68294 3.92683 6.76567 3.92683 5.63416C3.92683 4.50265 4.8441 3.58538 5.97561 3.58538C7.10712 3.58538 8.02439 4.50265 8.02439 5.63416C8.02439 6.76567 7.10712 7.68294 5.97561 7.68294Z" fill="#C91C1C"/>
</svg>
