<svg width="19" height="18" viewBox="0 0 19 18" fill="none" xmlns="http://www.w3.org/2000/svg">
<path d="M0.950012 8.68841C0.950012 7.46422 1.51059 6.30744 2.47144 5.54888L7.02143 1.95677C8.47467 0.80948 10.5254 0.809479 11.9786 1.95677L16.5286 5.54888C17.4894 6.30744 18.05 7.46422 18.05 8.68841V14C18.05 16.2091 16.2592 18 14.05 18H13.2C12.6477 18 12.2 17.5523 12.2 17V14.6C12.2 13.4954 11.3046 12.6 10.2 12.6H8.80001C7.69544 12.6 6.80001 13.4954 6.80001 14.6V17C6.80001 17.5523 6.3523 18 5.80001 18H4.95001C2.74087 18 0.950012 16.2091 0.950012 14L0.950012 8.68841Z" fill="white"/>
</svg>
