<svg width="10" height="11" viewBox="0 0 10 11" fill="none" xmlns="http://www.w3.org/2000/svg">
<path d="M4.14319 1.42372C4.53185 0.777902 5.46815 0.777902 5.85681 1.42372L6.75651 2.91871C6.89613 3.15073 7.12388 3.31619 7.38769 3.37729L9.08753 3.77098C9.82184 3.94105 10.1112 4.83152 9.61707 5.40073L8.47327 6.71837C8.29576 6.92286 8.20877 7.19059 8.23218 7.46036L8.38304 9.19867C8.44821 9.9496 7.69073 10.4999 6.9967 10.2059L5.39009 9.52526C5.14076 9.41963 4.85924 9.41963 4.60991 9.52526L3.0033 10.2059C2.30927 10.4999 1.55179 9.9496 1.61696 9.19867L1.76782 7.46036C1.79123 7.19059 1.70424 6.92286 1.52673 6.71837L0.382932 5.40073C-0.111176 4.83152 0.178155 3.94105 0.912469 3.77098L2.61231 3.37729C2.87612 3.31619 3.10387 3.15073 3.24349 2.91871L4.14319 1.42372Z" fill="#FFB800"/>
</svg>
