<svg width="49" height="49" viewBox="0 0 49 49" fill="none" xmlns="http://www.w3.org/2000/svg">
<path d="M15.95 13.6884C15.95 12.4642 16.5106 11.3074 17.4714 10.5489L22.0214 6.95677C23.4747 5.80948 25.5253 5.80948 26.9786 6.95677L31.5286 10.5489C32.4894 11.3074 33.05 12.4642 33.05 13.6884V19C33.05 21.2091 31.2591 23 29.05 23H28.2C27.6477 23 27.2 22.5523 27.2 22V19.6C27.2 18.4954 26.3046 17.6 25.2 17.6H23.8C22.6954 17.6 21.8 18.4954 21.8 19.6V22C21.8 22.5523 21.3523 23 20.8 23H19.95C17.7409 23 15.95 21.2091 15.95 19L15.95 13.6884Z" fill="white"/>
<circle cx="24.5" cy="34.5" r="2.5" fill="white"/>
</svg>
