<svg width="20" height="16" viewBox="0 0 20 16" fill="none" xmlns="http://www.w3.org/2000/svg">
<path fill-rule="evenodd" clip-rule="evenodd" d="M11.9929 0H4.51429C2.11579 0 0.171429 1.94436 0.171429 4.34286V5.46107C0.171429 5.97817 0.531915 6.35239 0.921861 6.48684C1.55019 6.70348 2 7.3001 2 8C2 8.6999 1.55019 9.29652 0.921861 9.51316C0.531914 9.64761 0.171429 10.0218 0.171429 10.5389V11.6571C0.171429 14.0556 2.11579 16 4.51429 16H11.9929V12.5714C11.9929 12.1572 12.3286 11.8214 12.7429 11.8214C13.1571 11.8214 13.4929 12.1572 13.4929 12.5714V16H15.4857C17.8842 16 19.8286 14.0556 19.8286 11.6571V10.5389C19.8286 10.0218 19.4681 9.64761 19.0781 9.51316C18.4498 9.29652 18 8.6999 18 8C18 7.3001 18.4498 6.70348 19.0781 6.48684C19.4681 6.35239 19.8286 5.97817 19.8286 5.46107V4.34286C19.8286 1.94436 17.8842 0 15.4857 0H13.4929V3.42857C13.4929 3.84279 13.1571 4.17857 12.7429 4.17857C12.3286 4.17857 11.9929 3.84279 11.9929 3.42857V0ZM12.7429 5.87858C13.1571 5.87858 13.4929 6.21437 13.4929 6.62858V9.37144C13.4929 9.78565 13.1571 10.1214 12.7429 10.1214C12.3286 10.1214 11.9929 9.78565 11.9929 9.37144V6.62858C11.9929 6.21437 12.3286 5.87858 12.7429 5.87858Z" fill="white"/>
</svg>
