<svg width="50" height="49" viewBox="0 0 50 49" fill="none" xmlns="http://www.w3.org/2000/svg">
<path fill-rule="evenodd" clip-rule="evenodd" d="M26.9929 5H19.5143C17.1158 5 15.1714 6.94436 15.1714 9.34286V10.4611C15.1714 10.9782 15.5319 11.3524 15.9219 11.4868C16.5502 11.7035 17 12.3001 17 13C17 13.6999 16.5502 14.2965 15.9219 14.5132C15.5319 14.6476 15.1714 15.0218 15.1714 15.5389V16.6571C15.1714 19.0556 17.1158 21 19.5143 21H26.9929V17.5714C26.9929 17.1572 27.3286 16.8214 27.7429 16.8214C28.1571 16.8214 28.4929 17.1572 28.4929 17.5714V21H30.4857C32.8842 21 34.8286 19.0556 34.8286 16.6571V15.5389C34.8286 15.0218 34.4681 14.6476 34.0781 14.5132C33.4498 14.2965 33 13.6999 33 13C33 12.3001 33.4498 11.7035 34.0781 11.4868C34.4681 11.3524 34.8286 10.9782 34.8286 10.4611V9.34286C34.8286 6.94436 32.8842 5 30.4857 5H28.4929V8.42857C28.4929 8.84279 28.1571 9.17857 27.7429 9.17857C27.3286 9.17857 26.9929 8.84279 26.9929 8.42857V5ZM27.7429 10.8786C28.1571 10.8786 28.4929 11.2144 28.4929 11.6286V14.3714C28.4929 14.7857 28.1571 15.1214 27.7429 15.1214C27.3286 15.1214 26.9929 14.7857 26.9929 14.3714V11.6286C26.9929 11.2144 27.3286 10.8786 27.7429 10.8786Z" fill="#888888"/>
</svg>
