<svg width="12" height="18" viewBox="0 0 12 18" fill="none" xmlns="http://www.w3.org/2000/svg">
<rect x="3.39999" y="1.52499" width="5.2" height="8.45" rx="2.6" stroke="white" stroke-width="1.5"/>
<path d="M11.95 9.97501C11.95 9.56079 11.6142 9.22501 11.2 9.22501C10.7858 9.22501 10.45 9.56079 10.45 9.97501H11.95ZM1.54999 9.97501C1.54999 9.56079 1.2142 9.22501 0.799988 9.22501C0.385774 9.22501 0.0499878 9.56079 0.0499878 9.97501H1.54999ZM10.45 9.97501C10.45 12.4327 8.45765 14.425 5.99999 14.425V15.925C9.28608 15.925 11.95 13.2611 11.95 9.97501H10.45ZM5.99999 14.425C3.54232 14.425 1.54999 12.4327 1.54999 9.97501H0.0499878C0.0499878 13.2611 2.71389 15.925 5.99999 15.925V14.425Z" fill="white"/>
<path d="M5.25 16.475C5.25 16.8892 5.58579 17.225 6 17.225C6.41421 17.225 6.75 16.8892 6.75 16.475H5.25ZM6.75 15.175C6.75 14.7608 6.41421 14.425 6 14.425C5.58579 14.425 5.25 14.7608 5.25 15.175H6.75ZM6.75 16.475V15.175H5.25V16.475H6.75Z" fill="white"/>
</svg>
